# xmcd CD database file
#
# Track frame offsets:
#	150
#	32642
#	47907
#	81361
#	97025
#	121147
#	151830
#	167285
#	195482
#	220266
#	253369
#	288323
#	319780
#
# Disc length: 4642 seconds
#
# Revision: 0
# Processed by: cddbd v1.5.1PL0 Copyright (c) Steve Scherf et al.
# Submitted via: CDex 1.51
#
DISCID=b012200d
DTITLE=Rare Mixes 1999 [bootleg] - Sandra
DYEAR=1999
DGENRE=New Age
TTITLE0=Maria Magdalena [extended]
TTITLE1=Party Games [instrumental]
TTITLE2=In The Heat Of The Night [single mix]
TTITLE3=Heatwave [instrumental]
TTITLE4=Little Girl [single mix]
TTITLE5=Innocent Love [single mix]
TTITLE6=Innocent Theme [instrumental]
TTITLE7=Hi! Hi! Hi! [single mix]
TTITLE8=Midnight Man [single version]
TTITLE9=Everlasting Love [extended version]
TTITLE10=Everlasting Love [pwl 12'']
TTITLE11=Everlasting Love [dub mix]
TTITLE12=Stop For A Minute [single mix]
EXTD=YEAR: 1999
EXTT0=
EXTT1=
EXTT2=
EXTT3=
EXTT4=
EXTT5=
EXTT6=
EXTT7=
EXTT8=
EXTT9=
EXTT10=
EXTT11=
EXTT12=
PLAYORDER=
